<svg width="49" height="49" viewBox="0 0 49 49" fill="none" xmlns="http://www.w3.org/2000/svg">
<path d="M24.0068 48.0135C37.2653 48.0135 48.0135 37.2653 48.0135 24.0068C48.0135 10.7482 37.2653 0 24.0068 0C10.7482 0 0 10.7482 0 24.0068C0 37.2653 10.7482 48.0135 24.0068 48.0135Z" fill="#F9B047"/>
<path d="M42.9656 18.3086L40.433 15.8288C40.0988 15.5122 39.5536 15.6705 39.4481 16.1102L38.5687 19.5573C38.4632 19.997 38.8677 20.4015 39.3074 20.2784L39.6943 20.1729C39.9933 21.404 40.1516 22.6879 40.1516 24.007C40.1516 25.027 40.0637 26.0119 39.8702 26.9792C39.6943 27.8938 39.4657 28.7731 39.1491 29.6173C36.8628 35.7729 30.9358 40.1522 24.0064 40.1522C19.8733 40.1522 16.1096 38.5869 13.2429 36.0367H24.024C28.0515 36.0367 31.4458 33.3107 32.4835 29.6173C32.6945 28.8611 32.8177 28.0696 32.8177 27.243C32.8177 27.1551 32.8177 27.0672 32.8177 26.9792C32.677 22.2482 28.7901 18.4493 24.024 18.4493H18.5191C19.4512 16.2333 21.6497 14.6681 24.1998 14.6681H34.8226H37.1793H40.3099C40.2747 14.5977 40.2395 14.5449 40.2044 14.4746C39.6943 13.6128 39.1139 12.7862 38.4808 12.0299C35.0337 7.87933 29.8278 5.22363 24.024 5.22363C15.5996 5.22363 8.45913 10.7988 6.08484 18.4318C5.82103 19.2935 5.60998 20.1729 5.46928 21.0699C5.31099 22.0196 5.24064 23.0045 5.24064 23.9894C5.24064 25.5371 5.43411 27.032 5.78585 28.4741L5.31099 28.6148C4.87131 28.738 4.73061 29.3008 5.06477 29.6173L7.61494 32.0971C7.9491 32.4137 8.49431 32.2554 8.59983 31.8157L9.4792 28.3686C9.58473 27.9289 9.18022 27.5244 8.74053 27.6475L8.31844 27.7706C8.03704 26.5571 7.87875 25.3084 7.87875 24.007C7.87875 23.0045 7.96669 22.0372 8.14256 21.0874C8.30085 20.1729 8.54707 19.2935 8.86364 18.4493C11.1148 12.2762 17.0594 7.86174 24.0064 7.86174C28.157 7.86174 31.9559 9.4446 34.8226 12.0299H24.1998C20.1723 12.0299 16.778 14.7384 15.7403 18.4493C15.6875 18.6428 15.6348 18.8363 15.5996 19.0297C15.5644 19.2232 15.5293 19.4166 15.4941 19.6101C15.4413 20.0146 15.4061 20.4191 15.4061 20.8236C15.4061 20.8412 15.4061 20.8588 15.4061 20.894C15.4061 20.9643 15.4061 21.0171 15.4061 21.0874C15.5468 25.8185 19.4337 29.6173 24.1998 29.6173H29.7047C28.7726 31.8333 26.5741 33.3986 24.024 33.3986H10.8686H7.73805C8.28326 34.3307 8.89882 35.2101 9.58473 36.0367C13.0319 40.1698 18.2201 42.7903 24.0064 42.7903C32.4131 42.7903 39.536 37.2502 41.9279 29.6173C42.1917 28.7555 42.4028 27.8762 42.5435 26.9792C42.7018 26.0119 42.7721 25.027 42.7721 24.007C42.7721 22.4417 42.5786 20.9116 42.2093 19.4518L42.7018 19.3111C43.159 19.188 43.2997 18.6428 42.9656 18.3086ZM24.1998 26.9792C20.8934 26.9792 18.185 24.3587 18.0618 21.0874H24.024C27.3304 21.0874 30.0388 23.708 30.162 26.9792H24.1998Z" fill="#000333"/>
</svg>
