<svg width="174" height="49" viewBox="0 0 174 49" fill="none" xmlns="http://www.w3.org/2000/svg">
<path d="M57.7796 23.7397C57.7796 26.0326 59.2498 27.3224 60.9856 27.3224C62.7215 27.3224 63.5894 26.158 63.8728 25.1907L66.8486 26.1938C66.2818 28.3076 64.3333 30.4752 60.9856 30.4752C57.2837 30.4752 54.3965 27.6448 54.3965 23.7576C54.3965 19.8345 57.2482 17.04 60.8971 17.04C64.3156 17.04 66.2463 19.1717 66.7777 21.3214L63.7488 22.3604C63.4477 21.3035 62.6506 20.2286 60.9679 20.2286C59.2321 20.1928 57.7796 21.4468 57.7796 23.7397Z" fill="#000333"/>
<path d="M76.0236 20.8624C75.6231 20.7907 75.2955 20.7548 74.9678 20.7548C73.1837 20.7548 71.6363 21.5972 71.6363 24.3396V30.1469H68.1592V17.4747H71.5453V19.3567C72.3281 17.6898 74.1121 17.3672 75.2044 17.3672C75.4957 17.3672 75.7506 17.3851 76.0236 17.421V20.8624Z" fill="#000333"/>
<path d="M88.2969 26.4625C87.6537 28.648 85.6528 30.4752 82.5443 30.4752C79.0784 30.4752 76.0234 27.9673 76.0234 23.7039C76.0234 19.6554 79.0069 17.04 82.2405 17.04C86.153 17.04 88.4755 19.53 88.4755 23.6143C88.4755 24.098 88.4219 24.6175 88.4219 24.6712H79.3821C79.4536 26.3371 80.8649 27.5553 82.5621 27.5553C84.1521 27.5553 85.0275 26.7492 85.4384 25.6206L88.2969 26.4625ZM85.1168 22.3245C85.0632 21.0706 84.2414 19.8166 82.2941 19.8166C80.5255 19.8166 79.5429 21.1601 79.4714 22.3245H85.1168Z" fill="#000333"/>
<path d="M102.132 27.8708C102.132 28.7151 102.186 29.6492 102.239 30.1701H98.9669C98.9132 29.9186 98.8417 29.2899 98.8417 28.6971C98.2695 29.7031 96.982 30.4755 95.3011 30.4755C91.7068 30.4755 89.1318 27.6372 89.1318 23.793C89.1318 20.0744 91.6353 17.1463 95.1938 17.1463C97.3754 17.1463 98.4125 18.0445 98.7702 18.7271V11.4697H102.132V27.8708ZM95.6945 27.4037C97.4469 27.4037 98.806 26.0564 98.806 23.757C98.806 21.4756 97.4469 20.2181 95.6945 20.2181C93.9421 20.2181 92.5652 21.5115 92.5652 23.775C92.5652 26.0384 93.8884 27.4037 95.6945 27.4037Z" fill="#000333"/>
<path d="M106.333 11.1416C107.524 11.1416 108.463 12.0928 108.463 13.2773C108.463 14.4079 107.524 15.3591 106.333 15.3591C105.16 15.3591 104.203 14.4079 104.203 13.2773C104.203 12.0928 105.16 11.1416 106.333 11.1416ZM104.618 30.1295V17.441H108.066V30.1474H104.618V30.1295Z" fill="#000333"/>
<path d="M114.68 17.5764H117.31V20.6346H114.68V25.9594C114.68 27.0747 115.217 27.4345 116.217 27.4345C116.643 27.4345 117.125 27.3805 117.31 27.3266V30.1689C116.995 30.2948 116.347 30.4747 115.31 30.4747C112.754 30.4747 111.161 28.9996 111.161 26.535V20.6166H108.79V17.5584H109.457C110.846 17.5584 111.476 16.677 111.476 15.5436V13.7627H114.68V17.5764Z" fill="#000333"/>
<path d="M120.152 26.1233C120.311 27.4073 121.271 28.4238 123.011 28.4238C124.361 28.4238 125.107 27.657 125.107 26.7831C125.107 26.0163 124.539 25.4278 123.526 25.196L121.43 24.7323C119.512 24.3222 118.358 23.0203 118.358 21.2727C118.358 19.1683 120.329 17.3672 122.727 17.3672C126.102 17.3672 127.15 19.5785 127.399 20.6842L125.285 21.4867C125.178 20.8447 124.663 19.4358 122.727 19.4358C121.502 19.4358 120.684 20.2383 120.684 21.0765C120.684 21.8255 121.146 22.3605 122.088 22.5567L124.077 22.9847C126.297 23.4662 127.47 24.8393 127.47 26.6583C127.47 28.406 126.013 30.4746 122.976 30.4746C119.601 30.4746 118.18 28.299 117.967 26.8901L120.152 26.1233Z" fill="#000333"/>
<path d="M131.901 30.1478H129.436V11.4697H131.901V19.185C132.815 17.8752 134.294 17.3728 135.737 17.3728C138.751 17.3728 140.249 19.508 140.249 22.2711V30.1478H137.783V22.7017C137.783 20.9792 137.053 19.5797 134.842 19.5797C132.943 19.5797 131.956 21.0331 131.901 22.8632V30.1478Z" fill="#000333"/>
<path d="M145.712 23.1538L149.116 22.6609C149.881 22.5514 150.081 22.1681 150.081 21.7117C150.081 20.4704 149.262 19.4482 147.35 19.4482C145.621 19.4482 144.656 20.5252 144.492 22.0038L142.144 21.4561C142.398 19.0466 144.583 17.3672 147.295 17.3672C151.064 17.3672 152.538 19.5212 152.538 21.9855V28.3197C152.538 29.415 152.648 30.0722 152.702 30.4007H150.299C150.245 30.0904 150.172 29.6158 150.172 28.7031C149.626 29.5975 148.37 30.8023 146.112 30.8023C143.545 30.8023 141.889 29.0134 141.889 27.0237C141.889 24.7237 143.545 23.4641 145.712 23.1538ZM150.081 24.961V24.3768L146.24 24.961C145.184 25.1252 144.401 25.7276 144.401 26.8594C144.401 27.8086 145.184 28.7031 146.44 28.7031C148.461 28.6848 150.081 27.7174 150.081 24.961Z" fill="#000333"/>
<path d="M161.878 20.3131C161.519 20.26 161.161 20.2423 160.82 20.2423C158.777 20.2423 157.415 21.3036 157.415 24.0098V30.1474H154.996V17.8899H157.362V20.0301C158.258 18.1552 159.817 17.6953 161.071 17.6953C161.412 17.6953 161.734 17.7484 161.878 17.7661V20.3131Z" fill="#000333"/>
<path d="M173.93 26.5692C173.236 28.7448 171.261 30.4746 168.396 30.4746C165.087 30.4746 162.204 28.0671 162.204 23.8763C162.204 20.0065 164.998 17.3672 168.094 17.3672C171.883 17.3672 174.001 19.9887 174.001 23.8228C174.001 24.126 173.983 24.447 173.947 24.5897H164.677C164.731 26.801 166.314 28.3346 168.396 28.3346C170.389 28.3346 171.385 27.229 171.848 25.838L173.93 26.5692ZM171.492 22.6458C171.439 20.8803 170.282 19.4893 168.111 19.4893C166.083 19.4893 164.855 21.0587 164.766 22.6458H171.492Z" fill="#000333"/>
<path d="M24.0068 48.0135C37.2653 48.0135 48.0135 37.2653 48.0135 24.0068C48.0135 10.7482 37.2653 0 24.0068 0C10.7482 0 0 10.7482 0 24.0068C0 37.2653 10.7482 48.0135 24.0068 48.0135Z" fill="#F9B047"/>
<path d="M42.9656 18.3086L40.433 15.8288C40.0988 15.5122 39.5536 15.6705 39.4481 16.1102L38.5687 19.5573C38.4632 19.997 38.8677 20.4015 39.3074 20.2784L39.6943 20.1729C39.9933 21.404 40.1516 22.6879 40.1516 24.007C40.1516 25.027 40.0637 26.0119 39.8702 26.9792C39.6943 27.8938 39.4657 28.7731 39.1491 29.6173C36.8628 35.7729 30.9358 40.1522 24.0064 40.1522C19.8733 40.1522 16.1096 38.5869 13.2429 36.0367H24.024C28.0515 36.0367 31.4458 33.3107 32.4835 29.6173C32.6945 28.8611 32.8177 28.0696 32.8177 27.243C32.8177 27.1551 32.8177 27.0672 32.8177 26.9792C32.677 22.2482 28.7901 18.4493 24.024 18.4493H18.5191C19.4512 16.2333 21.6497 14.6681 24.1998 14.6681H34.8226H37.1793H40.3099C40.2747 14.5977 40.2395 14.5449 40.2044 14.4746C39.6943 13.6128 39.1139 12.7862 38.4808 12.0299C35.0337 7.87933 29.8278 5.22363 24.024 5.22363C15.5996 5.22363 8.45913 10.7988 6.08484 18.4318C5.82103 19.2935 5.60998 20.1729 5.46928 21.0699C5.31099 22.0196 5.24064 23.0045 5.24064 23.9894C5.24064 25.5371 5.43411 27.032 5.78585 28.4741L5.31099 28.6148C4.87131 28.738 4.73061 29.3008 5.06477 29.6173L7.61494 32.0971C7.9491 32.4137 8.49431 32.2554 8.59983 31.8157L9.4792 28.3686C9.58473 27.9289 9.18022 27.5244 8.74053 27.6475L8.31844 27.7706C8.03704 26.5571 7.87875 25.3084 7.87875 24.007C7.87875 23.0045 7.96669 22.0372 8.14256 21.0874C8.30085 20.1729 8.54707 19.2935 8.86364 18.4493C11.1148 12.2762 17.0594 7.86174 24.0064 7.86174C28.157 7.86174 31.9559 9.4446 34.8226 12.0299H24.1998C20.1723 12.0299 16.778 14.7384 15.7403 18.4493C15.6875 18.6428 15.6348 18.8363 15.5996 19.0297C15.5644 19.2232 15.5293 19.4166 15.4941 19.6101C15.4413 20.0146 15.4061 20.4191 15.4061 20.8236C15.4061 20.8412 15.4061 20.8588 15.4061 20.894C15.4061 20.9643 15.4061 21.0171 15.4061 21.0874C15.5468 25.8185 19.4337 29.6173 24.1998 29.6173H29.7047C28.7726 31.8333 26.5741 33.3986 24.024 33.3986H10.8686H7.73805C8.28326 34.3307 8.89882 35.2101 9.58473 36.0367C13.0319 40.1698 18.2201 42.7903 24.0064 42.7903C32.4131 42.7903 39.536 37.2502 41.9279 29.6173C42.1917 28.7555 42.4028 27.8762 42.5435 26.9792C42.7018 26.0119 42.7721 25.027 42.7721 24.007C42.7721 22.4417 42.5786 20.9116 42.2093 19.4518L42.7018 19.3111C43.159 19.188 43.2997 18.6428 42.9656 18.3086ZM24.1998 26.9792C20.8934 26.9792 18.185 24.3587 18.0618 21.0874H24.024C27.3304 21.0874 30.0388 23.708 30.162 26.9792H24.1998Z" fill="#000333"/>
</svg>
