<svg width="46" height="48" viewBox="0 0 46 48" fill="none" xmlns="http://www.w3.org/2000/svg">
<g clip-path="url(#clip0_617_457)">
<path d="M34.3472 27.4752C34.1011 27.4131 33.8801 27.2923 33.5907 27.3605C33.4231 27.4005 33.2153 27.2567 33.0233 27.2029C32.4603 27.0435 31.8963 26.8981 31.3329 26.7351C30.85 26.5971 30.3675 26.4559 29.8896 26.3015C29.6741 26.2318 29.4819 26.2407 29.295 26.3634C29.2301 26.5356 29.3724 26.6199 29.4441 26.7237C29.5213 26.8365 29.4391 26.8652 29.378 26.9151C29.5456 27.0339 29.5456 27.0339 29.7527 26.9888C29.6853 27.1293 29.6735 27.2502 29.4718 27.2794C29.3423 27.2981 29.2316 27.4569 29.0824 27.5775L29.4121 27.8631C29.3933 28.0605 29.4691 28.1692 29.7061 28.2683C31.5096 29.0095 33.3224 29.7285 35.1125 30.5003C36.0268 30.8948 36.9043 31.3739 37.7895 31.8312C38.8614 32.3856 39.9234 32.96 40.9919 33.5192C41.1978 33.6232 41.4092 33.7163 41.6251 33.7982C41.8354 33.881 42.0386 33.8438 42.2291 33.719C42.4416 33.5799 42.4639 33.5068 42.3543 33.2779C42.3366 33.2405 42.3135 33.206 42.2859 33.1585C42.4105 33.0496 42.41 32.9338 42.3815 32.7731C42.276 32.1837 41.9468 31.6901 41.7395 31.1447C41.1516 29.5945 40.5567 28.0496 39.922 26.5215C38.8799 24.0151 37.8043 21.5224 36.7394 19.0256C36.6627 18.8537 36.5744 18.6874 36.475 18.5277C36.3961 18.3957 36.2805 18.3454 36.1254 18.4221C35.9865 18.4905 35.7922 18.5158 35.7158 18.6227C35.6489 18.7156 35.7184 18.9002 35.7144 19.0437C35.7122 19.1467 35.7157 19.2635 35.6696 19.3494C35.5192 19.6296 35.5132 19.9187 35.5907 20.2053C35.7642 20.8422 35.9297 21.4832 36.1428 22.1068C36.5993 23.446 37.0845 24.7751 37.5573 26.109C37.5661 26.1324 37.5703 26.1574 37.5693 26.1825C37.5684 26.2077 37.5625 26.2324 37.5519 26.2553C37.3595 26.076 37.1666 25.8959 36.9704 25.7207C36.724 25.5023 36.4679 25.294 36.2246 25.0722C36.0649 24.9264 35.9307 24.7523 35.7673 24.6115C35.4853 24.3681 35.194 24.139 34.9005 23.911C34.6071 23.683 34.3029 23.4585 34.0012 23.2355C33.7495 23.0501 33.4987 22.8635 33.2392 22.6891C32.8647 22.4377 32.4867 22.1907 32.1029 21.9537C31.7023 21.7066 31.2935 21.4731 30.8884 21.2338C30.8789 21.2293 30.8691 21.2255 30.859 21.2223C30.6935 21.1524 30.5355 21.0664 30.3872 20.9656C30.2252 20.8596 30.0649 20.7621 29.9089 20.6465C29.7295 20.5143 29.5067 20.4364 29.2993 20.3452C29.1358 20.2764 28.9774 20.1965 28.8251 20.1061C28.4158 19.849 27.9662 19.7007 27.5244 19.5255C27.3034 19.4377 27.0808 19.3562 26.9248 19.1485C26.8679 19.0728 26.724 19.0392 26.6156 19.0307C26.3545 19.01 26.1217 18.9464 25.9412 18.7468C25.9038 18.7055 25.8139 18.6541 25.7861 18.6715C25.6343 18.7679 25.5303 18.6587 25.4054 18.616C25.1094 18.5174 24.8457 18.3535 24.5842 18.1971C24.4768 18.1309 24.3869 18.0112 24.3255 17.8957C23.9353 17.185 23.4783 16.5221 22.899 15.9512C22.5716 15.628 22.236 15.3048 21.8589 15.0468C21.581 14.8572 21.2599 14.7313 21.0587 14.4419C20.2612 13.9557 19.4617 13.4967 18.5556 13.1967C17.0971 12.713 15.6064 12.5295 14.077 12.5293C13.6862 12.5285 13.2958 12.5321 12.9051 12.5331C11.8164 12.5364 10.7637 12.7518 9.73098 13.0921C8.28364 13.568 6.83269 14.033 5.39485 14.533C4.60615 14.8152 3.82884 15.131 3.06624 15.4733C2.66494 15.6535 2.30004 15.9213 1.93387 16.1691C1.81921 16.2466 1.75456 16.3908 1.65088 16.5244L1.83737 16.6661C1.79005 16.7466 1.70894 16.8297 1.69448 16.9225C1.66736 17.1331 1.58272 17.3329 1.44982 17.5C1.40973 17.5495 1.4611 17.6685 1.47017 17.788L2.07707 17.5946L2.107 17.6574C1.93932 17.7834 1.77365 17.9112 1.60863 18.0369C1.79648 18.2992 1.86789 18.3276 2.09548 18.2522C2.13633 18.2406 2.17576 18.2243 2.21301 18.2038C3.03316 17.7056 3.95544 17.4915 4.86076 17.2394C6.10617 16.8953 7.36162 16.5937 8.63985 16.4053C9.53249 16.2737 10.4306 16.2883 11.3275 16.2776C12.2034 16.2673 13.0798 16.2561 13.956 16.253C14.9899 16.2481 15.9866 16.4578 16.9785 16.7109C17.9585 16.9611 18.9357 17.2139 19.8625 17.6229C19.9782 17.6676 20.0819 17.738 20.1658 17.8287C20.0593 17.8472 19.9523 17.8667 19.845 17.8835C18.7031 18.0646 17.6312 18.4355 16.6489 19.0618C15.9211 19.5273 15.3245 20.1715 14.9174 20.9313C14.169 22.2964 13.8206 23.765 13.7927 25.3042C13.7725 26.3824 14.0526 27.4024 14.6574 28.282C15.443 29.4247 16.5501 30.132 17.9463 30.3501C18.6242 30.4561 19.3069 30.5146 19.9943 30.416C20.964 30.2767 21.8021 29.8384 22.5717 29.249C23.5904 28.468 24.4006 27.5214 24.9349 26.3479C25.4766 25.1593 25.7082 23.8569 25.6081 22.5627C25.5715 22.0536 25.4964 21.546 25.4394 21.0334C27.3748 21.5835 29.2001 22.4142 30.9572 23.294C31.0396 23.2172 31.0872 23.1724 31.1392 23.1242C31.1772 23.1748 31.203 23.1976 31.1999 23.205C31.1216 23.3662 31.217 23.4579 31.3328 23.5354C31.6116 23.7209 31.8904 23.9064 32.1744 24.0835C33.1441 24.6891 34.0943 25.3235 34.9841 26.0392C35.8396 26.7277 36.6668 27.4499 37.5034 28.1617C37.6037 28.2468 37.6829 28.3569 37.8195 28.5058C37.6884 28.4848 37.6312 28.48 37.5754 28.4616C37.2141 28.3528 36.8541 28.2396 36.4919 28.1327C36.4241 28.107 36.3508 28.0982 36.2784 28.107C35.9701 28.1769 35.9151 28.1744 35.6347 28.0213C35.6554 27.9882 35.6757 27.9553 35.7025 27.9135L35.4012 27.7779C35.4595 27.8479 35.4644 27.925 35.3565 27.9218C35.2728 27.9193 35.1912 27.8605 35.1091 27.8265C34.9254 27.8121 34.754 27.7911 34.6302 27.6172C34.572 27.5397 34.4388 27.5157 34.341 27.4668L34.4099 27.6353L34.1627 27.5495C34.2737 27.5054 34.3114 27.4896 34.3472 27.4752ZM9.15179 15.7254C9.12099 15.7212 9.08922 15.7081 9.06029 15.7133C7.65666 15.9603 6.26717 16.286 4.89847 16.6887C4.26234 16.874 3.63343 17.0834 2.9974 17.2834C3.60148 16.7193 8.57542 15.4384 9.71229 15.5776C9.48149 15.6371 9.30931 15.6788 9.13933 15.7234L9.26217 15.8263L8.90914 15.8536C9.02159 15.793 9.08582 15.7596 9.15179 15.7254ZM23.7065 21.2128L23.8359 21.5908C24.2492 22.7941 24.0237 23.9291 23.4086 25.0126C22.881 25.9403 22.1225 26.6648 21.2721 27.2916C19.8347 28.3501 18.2948 28.3054 16.7412 27.6643C16.3742 27.5126 16.0577 27.2194 15.7482 26.9562C15.2178 26.501 15.0065 25.9142 15.1002 25.2093C15.2089 24.3908 15.4997 23.6392 15.9222 22.9315C16.5125 21.9423 17.3565 21.2709 18.4598 20.9379C19.8608 20.5084 21.3295 20.3571 22.7821 20.4924C23.5214 20.5626 23.3644 20.4135 23.7065 21.2128ZM11.9561 12.8981L11.9616 12.9646C11.933 12.9743 11.9038 12.9823 11.8742 12.9887C10.7051 13.1729 9.55076 13.4458 8.42125 13.8049C6.88222 14.303 5.34129 14.7963 3.95926 15.2402C4.55998 14.9364 5.35733 14.6818 6.15243 14.4181C6.98595 14.1426 7.8259 13.8833 8.65703 13.6085C9.3912 13.365 10.1259 13.1221 10.8918 13.0067C11.2444 12.9536 11.6012 12.9337 11.9561 12.8981ZM8.3675 14.1708C9.53957 13.8311 10.6779 13.346 11.9267 13.3709C10.7316 13.6078 9.5385 13.8427 8.36695 14.1701L8.3675 14.1708ZM20.3254 19.9191C19.532 20.1015 18.7386 20.284 17.9452 20.4668C18.6741 20.0053 19.4967 19.9531 20.3254 19.9191ZM18.0711 18.5393C18.8489 18.1896 19.6793 18.0382 20.5404 18.0504L18.0711 18.5393ZM8.64455 14.8966C9.36875 14.6628 10.0977 14.4522 10.8604 14.437C10.8525 14.452 10.8416 14.4653 10.8283 14.4761C10.815 14.4868 10.7998 14.4948 10.7834 14.4994C10.0716 14.6318 9.35868 14.7642 8.64455 14.8966ZM20.9834 29.4728C20.5146 29.8187 19.8348 29.9827 19.4177 29.8441C19.9684 29.7776 20.4293 29.5271 20.986 29.4732L20.9834 29.4728ZM20.3259 28.0318C19.761 28.2888 19.2405 28.3918 18.6923 28.3073L20.3259 28.0318ZM18.7959 18.7039C19.2953 18.47 20.1065 18.32 20.4646 18.393L18.7959 18.7039ZM20.2482 19.1525C19.9335 19.2083 19.6187 19.2642 19.3037 19.3201C19.6051 19.1489 19.9296 19.1112 20.2497 19.1537L20.2482 19.1525ZM20.0522 28.4417C19.5786 28.6125 19.3834 28.6327 19.0772 28.548L20.0522 28.4417ZM31.0373 22.5418C30.9656 22.5024 30.8923 22.4862 30.8772 22.4469C30.8742 22.4207 30.878 22.3941 30.8883 22.3696C30.8985 22.3451 30.915 22.3236 30.936 22.3072C30.9612 22.3022 30.9872 22.3039 31.0113 22.3122C31.0354 22.3204 31.0568 22.335 31.0734 22.3542C31.0909 22.3952 31.0558 22.459 31.0373 22.5418ZM19.7676 29.1112L19.7644 29.1882L19.2853 29.222L19.2811 29.1603L19.7676 29.1112ZM7.41207 14.4406L7.41824 14.4695L7.08998 14.5812L7.07482 14.518L7.41207 14.4406ZM7.82804 14.3467L7.82398 14.3343C7.86518 14.3171 7.90665 14.3001 7.94822 14.2826L7.95518 14.3018C7.91234 14.3169 7.87014 14.3321 7.82804 14.3467Z" fill="black" fill-opacity="0.3"/>
</g>
<defs>
<clipPath id="clip0_617_457">
<rect width="38.2348" height="27.5871" fill="white" transform="matrix(0.600552 0.799585 0.799585 -0.600552 0.828125 17)"/>
</clipPath>
</defs>
</svg>
