<svg width="46" height="48" viewBox="0 0 46 48" fill="none" xmlns="http://www.w3.org/2000/svg">
<g clip-path="url(#clip0_617_461)">
<path d="M34.3472 20.5248C34.1011 20.5869 33.8801 20.7077 33.5907 20.6395C33.4231 20.5995 33.2153 20.7433 33.0233 20.7971C32.4603 20.9565 31.8963 21.1019 31.3329 21.2649C30.85 21.4029 30.3675 21.5441 29.8896 21.6985C29.6741 21.7682 29.4819 21.7593 29.295 21.6366C29.2301 21.4644 29.3724 21.3801 29.4441 21.2763C29.5213 21.1635 29.4391 21.1348 29.378 21.0849C29.5456 20.9661 29.5456 20.9661 29.7527 21.0112C29.6853 20.8707 29.6735 20.7498 29.4718 20.7206C29.3423 20.7019 29.2316 20.5431 29.0824 20.4225L29.4121 20.1369C29.3933 19.9395 29.4691 19.8308 29.7061 19.7317C31.5096 18.9905 33.3224 18.2715 35.1125 17.4997C36.0268 17.1052 36.9043 16.6261 37.7895 16.1688C38.8614 15.6144 39.9234 15.04 40.9919 14.4808C41.1978 14.3768 41.4092 14.2837 41.6251 14.2018C41.8354 14.119 42.0386 14.1562 42.2291 14.281C42.4416 14.4201 42.4639 14.4932 42.3543 14.7221C42.3366 14.7595 42.3135 14.794 42.2859 14.8415C42.4105 14.9504 42.41 15.0662 42.3815 15.2269C42.276 15.8163 41.9468 16.3099 41.7395 16.8553C41.1516 18.4055 40.5567 19.9504 39.922 21.4785C38.8799 23.9849 37.8043 26.4776 36.7394 28.9744C36.6627 29.1463 36.5744 29.3126 36.475 29.4723C36.3961 29.6043 36.2805 29.6546 36.1254 29.5779C35.9865 29.5095 35.7922 29.4842 35.7158 29.3773C35.6489 29.2844 35.7184 29.0998 35.7144 28.9563C35.7122 28.8533 35.7157 28.7365 35.6696 28.6506C35.5192 28.3704 35.5132 28.0813 35.5907 27.7947C35.7642 27.1578 35.9297 26.5168 36.1428 25.8932C36.5993 24.554 37.0845 23.2249 37.5573 21.891C37.5661 21.8676 37.5703 21.8426 37.5693 21.8175C37.5684 21.7923 37.5625 21.7676 37.5519 21.7447C37.3595 21.924 37.1666 22.1041 36.9704 22.2793C36.724 22.4977 36.4679 22.706 36.2246 22.9278C36.0649 23.0736 35.9307 23.2477 35.7673 23.3885C35.4853 23.6319 35.194 23.861 34.9005 24.089C34.6071 24.317 34.3029 24.5415 34.0012 24.7645C33.7495 24.9499 33.4987 25.1365 33.2392 25.3109C32.8647 25.5623 32.4867 25.8093 32.1029 26.0463C31.7023 26.2934 31.2935 26.5269 30.8884 26.7662C30.8789 26.7707 30.8691 26.7745 30.859 26.7777C30.6935 26.8476 30.5355 26.9336 30.3872 27.0344C30.2252 27.1404 30.0649 27.2379 29.9089 27.3535C29.7295 27.4857 29.5067 27.5636 29.2993 27.6548C29.1358 27.7236 28.9774 27.8035 28.8251 27.8939C28.4158 28.151 27.9662 28.2993 27.5244 28.4745C27.3034 28.5623 27.0808 28.6438 26.9248 28.8515C26.8679 28.9272 26.724 28.9608 26.6156 28.9693C26.3545 28.99 26.1217 29.0536 25.9412 29.2532C25.9038 29.2945 25.8139 29.3459 25.7861 29.3285C25.6343 29.2321 25.5303 29.3413 25.4054 29.384C25.1094 29.4826 24.8457 29.6465 24.5842 29.8029C24.4768 29.8691 24.3869 29.9888 24.3255 30.1043C23.9353 30.815 23.4783 31.4779 22.899 32.0488C22.5716 32.372 22.236 32.6952 21.8589 32.9532C21.581 33.1428 21.2599 33.2687 21.0587 33.5581C20.2612 34.0443 19.4617 34.5033 18.5556 34.8033C17.0971 35.287 15.6064 35.4705 14.077 35.4707C13.6862 35.4715 13.2958 35.4679 12.9051 35.4669C11.8164 35.4636 10.7637 35.2482 9.73098 34.9079C8.28364 34.432 6.83269 33.967 5.39485 33.467C4.60615 33.1848 3.82884 32.869 3.06624 32.5267C2.66494 32.3465 2.30004 32.0787 1.93387 31.8309C1.81921 31.7534 1.75456 31.6092 1.65088 31.4756L1.83737 31.3339C1.79005 31.2534 1.70894 31.1703 1.69448 31.0775C1.66736 30.8669 1.58272 30.6671 1.44982 30.5C1.40973 30.4505 1.4611 30.3315 1.47017 30.212L2.07707 30.4054L2.107 30.3426C1.93932 30.2166 1.77365 30.0888 1.60863 29.9631C1.79648 29.7008 1.86789 29.6724 2.09548 29.7478C2.13633 29.7594 2.17576 29.7757 2.21301 29.7962C3.03316 30.2944 3.95544 30.5085 4.86076 30.7606C6.10617 31.1047 7.36162 31.4063 8.63985 31.5947C9.53249 31.7263 10.4306 31.7117 11.3275 31.7224C12.2034 31.7327 13.0798 31.7439 13.956 31.747C14.9899 31.7519 15.9866 31.5422 16.9785 31.2891C17.9585 31.0389 18.9357 30.7861 19.8625 30.3771C19.9782 30.3324 20.0819 30.262 20.1658 30.1713C20.0593 30.1528 19.9523 30.1333 19.845 30.1165C18.7031 29.9354 17.6312 29.5645 16.6489 28.9382C15.9211 28.4727 15.3245 27.8285 14.9174 27.0687C14.169 25.7036 13.8206 24.235 13.7927 22.6958C13.7725 21.6176 14.0526 20.5976 14.6574 19.718C15.443 18.5753 16.5501 17.868 17.9463 17.6499C18.6242 17.5439 19.3069 17.4854 19.9943 17.584C20.964 17.7233 21.8021 18.1616 22.5717 18.751C23.5904 19.532 24.4006 20.4786 24.9349 21.6521C25.4766 22.8407 25.7082 24.1431 25.6081 25.4373C25.5715 25.9464 25.4964 26.454 25.4394 26.9666C27.3748 26.4165 29.2001 25.5858 30.9572 24.706C31.0396 24.7828 31.0872 24.8276 31.1392 24.8758C31.1772 24.8252 31.203 24.8024 31.1999 24.795C31.1216 24.6338 31.217 24.5421 31.3328 24.4646C31.6116 24.2791 31.8904 24.0936 32.1744 23.9165C33.1441 23.3109 34.0943 22.6765 34.9841 21.9608C35.8396 21.2723 36.6668 20.5501 37.5034 19.8383C37.6037 19.7532 37.6829 19.6431 37.8195 19.4942C37.6884 19.5152 37.6312 19.52 37.5754 19.5384C37.2141 19.6472 36.8541 19.7604 36.4919 19.8673C36.4241 19.893 36.3508 19.9018 36.2784 19.893C35.9701 19.8231 35.9151 19.8256 35.6347 19.9787C35.6554 20.0118 35.6757 20.0447 35.7025 20.0865L35.4012 20.2221C35.4595 20.1521 35.4644 20.075 35.3565 20.0782C35.2728 20.0807 35.1912 20.1395 35.1091 20.1735C34.9254 20.1879 34.754 20.2089 34.6302 20.3828C34.572 20.4603 34.4388 20.4843 34.341 20.5332L34.4099 20.3647L34.1627 20.4505C34.2737 20.4946 34.3114 20.5104 34.3472 20.5248ZM9.15179 32.2746C9.12099 32.2788 9.08922 32.2919 9.06029 32.2867C7.65666 32.0397 6.26717 31.714 4.89847 31.3113C4.26234 31.126 3.63343 30.9166 2.9974 30.7166C3.60148 31.2807 8.57542 32.5616 9.71229 32.4224C9.48149 32.3629 9.30931 32.3212 9.13933 32.2766L9.26217 32.1737L8.90914 32.1464C9.02159 32.207 9.08582 32.2404 9.15179 32.2746ZM23.7065 26.7872L23.8359 26.4092C24.2492 25.2059 24.0237 24.0709 23.4086 22.9874C22.881 22.0597 22.1225 21.3352 21.2721 20.7084C19.8347 19.6499 18.2948 19.6946 16.7412 20.3357C16.3742 20.4874 16.0577 20.7806 15.7482 21.0438C15.2178 21.499 15.0065 22.0858 15.1002 22.7907C15.2089 23.6092 15.4997 24.3608 15.9222 25.0685C16.5125 26.0577 17.3565 26.7291 18.4598 27.0621C19.8608 27.4916 21.3295 27.6429 22.7821 27.5076C23.5214 27.4374 23.3644 27.5865 23.7065 26.7872ZM11.9561 35.1019L11.9616 35.0354C11.933 35.0257 11.9038 35.0177 11.8742 35.0113C10.7051 34.8271 9.55076 34.5542 8.42125 34.1951C6.88222 33.697 5.34129 33.2037 3.95926 32.7598C4.55998 33.0636 5.35733 33.3182 6.15243 33.5819C6.98595 33.8574 7.8259 34.1167 8.65703 34.3915C9.3912 34.635 10.1259 34.8779 10.8918 34.9933C11.2444 35.0464 11.6012 35.0663 11.9561 35.1019ZM8.3675 33.8292C9.53957 34.1689 10.6779 34.654 11.9267 34.6291C10.7316 34.3922 9.5385 34.1573 8.36695 33.8299L8.3675 33.8292ZM20.3254 28.0809C19.532 27.8985 18.7386 27.716 17.9452 27.5332C18.6741 27.9947 19.4967 28.0469 20.3254 28.0809ZM18.0711 29.4607C18.8489 29.8104 19.6793 29.9618 20.5404 29.9496L18.0711 29.4607ZM8.64455 33.1034C9.36875 33.3372 10.0977 33.5478 10.8604 33.563C10.8525 33.548 10.8416 33.5347 10.8283 33.5239C10.815 33.5132 10.7998 33.5052 10.7834 33.5006C10.0716 33.3682 9.35868 33.2358 8.64455 33.1034ZM20.9834 18.5272C20.5146 18.1813 19.8348 18.0173 19.4177 18.1559C19.9684 18.2224 20.4293 18.4729 20.986 18.5268L20.9834 18.5272ZM20.3259 19.9682C19.761 19.7112 19.2405 19.6082 18.6923 19.6927L20.3259 19.9682ZM18.7959 29.2961C19.2953 29.53 20.1065 29.68 20.4646 29.607L18.7959 29.2961ZM20.2482 28.8475C19.9335 28.7917 19.6187 28.7358 19.3037 28.6799C19.6051 28.8511 19.9296 28.8888 20.2497 28.8463L20.2482 28.8475ZM20.0522 19.5583C19.5786 19.3875 19.3834 19.3673 19.0772 19.452L20.0522 19.5583ZM31.0373 25.4582C30.9656 25.4976 30.8923 25.5138 30.8772 25.5531C30.8742 25.5793 30.878 25.6059 30.8883 25.6304C30.8985 25.6549 30.915 25.6764 30.936 25.6928C30.9612 25.6978 30.9872 25.6961 31.0113 25.6878C31.0354 25.6796 31.0568 25.665 31.0734 25.6458C31.0909 25.6048 31.0558 25.541 31.0373 25.4582ZM19.7676 18.8888L19.7644 18.8118L19.2853 18.778L19.2811 18.8397L19.7676 18.8888ZM7.41207 33.5594L7.41824 33.5305L7.08998 33.4188L7.07482 33.482L7.41207 33.5594ZM7.82804 33.6533L7.82398 33.6657C7.86518 33.6829 7.90665 33.6999 7.94822 33.7174L7.95518 33.6982C7.91234 33.6831 7.87014 33.6679 7.82804 33.6533Z" fill="black" fill-opacity="0.3"/>
</g>
<defs>
<clipPath id="clip0_617_461">
<rect width="38.2348" height="27.5871" fill="white" transform="translate(0.828125 31) rotate(-53.0905)"/>
</clipPath>
</defs>
</svg>
